<svg xmlns="http://www.w3.org/2000/svg" viewBox="0 0 64 64" fill="none">
  <!-- Breeze app icon: dark rounded badge + the canonical three-line breeze mark. -->
  <rect width="64" height="64" rx="14" fill="#0A0A0B"/>
  <path d="M12 22C12 22 20 22 28 22C36 22 40 16 48 16C52 16 54 18 54 20C54 22 52 24 48 24C44 24 42 22 42 22" stroke="#0ED4C5" stroke-width="3" stroke-linecap="round" stroke-linejoin="round"/>
  <path d="M8 34C8 34 18 34 30 34C42 34 46 28 52 28C55 28 57 30 57 32C57 34 55 36 52 36C48 36 46 34 46 34" stroke="#0ED4C5" stroke-width="3" stroke-linecap="round" stroke-linejoin="round"/>
  <path d="M14 46C14 46 22 46 32 46C40 46 44 40 50 40C53 40 55 42 55 44C55 46 53 48 50 48C46 48 44 46 44 46" stroke="#0ED4C5" stroke-width="3" stroke-linecap="round" stroke-linejoin="round"/>
</svg>
